<?xml version="1.0" encoding="UTF-8"?>
<svg xmlns="http://www.w3.org/2000/svg" xmlns:xlink="http://www.w3.org/1999/xlink" width="2836" height="2836" viewBox="0 0 2836 2836">

<path fill-rule="evenodd" fill="rgb(5.447388%, 5.892944%, 5.529785%)" fill-opacity="1" d="M 577.625 1374.921875 L 2258.621094 1374.921875 L 2258.621094 2215.882812 L 577.625 2215.882812 Z M 1418.121094 471.878906 C 1426.078125 471.878906 1432.589844 478.390625 1432.589844 486.351562 L 1432.589844 610.570312 L 1465.019531 610.570312 C 1467.421875 623.988281 1469.839844 637.421875 1472.238281 650.828125 L 1475.289062 667.828125 C 1696.988281 686.339844 1909.140625 813.238281 2000.289062 1048.980469 L 835.949219 1048.980469 C 927.101562 813.640625 1139.25 686.570312 1360.941406 667.878906 L 1364 650.828125 C 1366.398438 637.421875 1368.789062 623.988281 1371.210938 610.570312 L 1403.648438 610.570312 L 1403.648438 486.351562 C 1403.648438 478.390625 1410.160156 471.878906 1418.121094 471.878906 Z M 664.335938 1103.351562 L 2171.910156 1103.351562 L 2171.910156 1172.921875 L 664.335938 1172.921875 Z M 487.792969 1227.300781 L 2348.449219 1227.300781 L 2348.449219 1320.539062 L 487.792969 1320.539062 Z M 487.792969 2270.257812 L 2348.449219 2270.257812 L 2348.449219 2363.503906 L 487.792969 2363.503906 Z M 659.046875 1468.160156 L 742.925781 1468.160156 L 742.925781 2122.636719 L 659.046875 2122.636719 Z M 2093.320312 1468.160156 L 2177.199219 1468.160156 L 2177.199219 2122.636719 L 2093.320312 2122.636719 Z M 1914.03125 1468.160156 L 1997.910156 1468.160156 L 1997.910156 2122.636719 L 1914.03125 2122.636719 Z M 1734.75 1468.160156 L 1818.628906 1468.160156 L 1818.628906 2122.636719 L 1734.75 2122.636719 Z M 1555.460938 1468.160156 L 1639.351562 1468.160156 L 1639.351562 2122.636719 L 1555.460938 2122.636719 Z M 1376.179688 1468.160156 L 1460.058594 1468.160156 L 1460.058594 2122.636719 L 1376.179688 2122.636719 Z M 1196.898438 1468.160156 L 1280.78125 1468.160156 L 1280.78125 2122.636719 L 1196.898438 2122.636719 Z M 1017.609375 1468.160156 L 1101.488281 1468.160156 L 1101.488281 2122.636719 L 1017.609375 2122.636719 Z M 838.328125 1468.160156 L 922.210938 1468.160156 L 922.210938 2122.636719 L 838.328125 2122.636719 L 838.328125 1468.160156 "/>
</svg>
